<svg version="1.2" xmlns="http://www.w3.org/2000/svg" viewBox="0 0 462 462" width="462" height="462">
	<title>logo-svg</title>
	<style>
		.s0 { fill: #3280ff } 
	</style>
	<path id="Layer" fill-rule="evenodd" class="s0" d="m199.8 11.5c19.3-11.1 43.1-11.1 62.4 0l143.2 82.7c19.4 11.2 31.3 31.8 31.3 54.1v165.3c0 22.4-11.9 43-31.3 54.2l-143.2 82.6c-19.3 11.2-43.1 11.2-62.5 0l-143.2-82.6c-19.3-11.2-31.2-31.8-31.2-54.2v-165.3c0-22.3 11.9-43 31.2-54.1zm-111.9 115.8c-11 6.3-17.7 18-17.7 30.7v145.4c0 12.6 6.7 24.4 17.7 30.7l125.9 72.7c11 6.4 24.5 6.4 35.5 0l125.9-72.7c10.9-6.3 17.8-18 17.8-30.7l-0.1-145.3c0-12.7-6.8-24.4-17.8-30.8l-125.8-72.6c-11-6.4-24.5-6.4-35.5 0z"/>
	<path id="Layer" class="s0" d="m218 100.3c8.1-4.6 17.9-4.6 26 0l93.6 54.1c8.1 4.6 13 13.2 13 22.5v108.1c0 9.3-4.9 17.9-13 22.6l-93.6 54c-8.1 4.7-17.9 4.7-26 0l-93.7-54c-8-4.7-13-13.3-13-22.6v-108.1c0-9.3 5-17.9 13-22.5z"/>
	<path id="Layer" class="s0" d="m265.6 336.9l40.7-23.5 32.7 56.8-40.7 23.5z"/>
	<path id="Layer" class="s0" d="m259.6 352.5c-0.5-0.8-1.1-1.8-1.1-1.8l13-7.5 7.8 13.5-1.7 1c0 0-6.4-13.1-18.1-5.2z"/>
	<path id="Layer" class="s0" d="m285.4 371.1c0.7-0.4 1.7-1 1.7-1l7.5 13-13.4 7.8-1-1.8c0 0 13.1-6.3 5.2-18z"/>
	<path id="Layer" class="s0" d="m343.8 352.4c0.4 0.8 1 1.7 1 1.7l-13 7.5-7.8-13.4 1.8-1c0 0 6.3 13.1 18 5.2z"/>
	<path id="Layer" class="s0" d="m318.1 333.8c-0.9 0.4-1.8 0.9-1.8 0.9l-7.5-13 13.4-7.7 1 1.7c0 0-13.1 6.4-5.2 18z"/>
</svg>