<svg version="1.2" xmlns="http://www.w3.org/2000/svg" viewBox="0 0 512 512" width="512" height="512">
	<path fill="url(#paint1_linear)" fill-rule="evenodd" d="m224.7 36.5c19.4-11.1 43.2-11.1 62.5 0l143.2 82.7c19.4 11.2 31.3 31.8 31.3 54.1v165.4c0 22.3-11.9 42.9-31.3 54.1l-143.1 82.7c-19.4 11.1-43.2 11.1-62.5 0l-143.2-82.7c-19.4-11.2-31.3-31.8-31.3-54.1v-165.4c0-22.3 11.9-42.9 31.3-54.1zm-112 115.8c-10.9 6.3-17.7 18.1-17.7 30.7v145.4c0 12.7 6.8 24.4 17.7 30.7l125.9 72.7c11 6.3 24.5 6.3 35.5 0l33.5-19.3c3-2.3 7.3-7.1 4-14.1l-1.3-2.3q0 0 0 0 0 0 0 0l-8.5-14.7c-1.8-2.7-6.5-8.5-13.9-5.7l-19 10.9c-8 4.7-17.9 4.7-26 0l-93.6-54.1c-8.1-4.6-13-13.2-13-22.5v-108.1c0-9.3 4.9-17.9 13-22.5l93.6-54.1c8.1-4.6 18-4.6 26 0l93.7 54.1c8 4.6 13 13.2 13 22.5v108.1c0 9.3-5 17.9-13 22.6l-17.1 9.8c-3 2.3-7.2 7.1-3.9 14l9.9 17.1c1.7 2.7 6.5 8.5 13.9 5.6l34.6-20c11-6.3 17.7-18 17.7-30.7v-145.4c0-12.6-6.7-24.4-17.7-30.7l-125.9-72.7c-11-6.3-24.5-6.3-35.5 0z"/>

	<defs>
		<linearGradient id="paint1_linear" x1="80%" y1="0%" x2="20%" y2="100%">
			<stop stop-color="#3280FF"/>
			<stop offset="1" stop-color="#32AFFF"/>
		</linearGradient>
	</defs>

</svg>