<svg version="1.2" xmlns="http://www.w3.org/2000/svg" viewBox="0 0 432 432" width="432" height="432">
	<title>qii-svg</title>
	<style>
		.s0 { fill: #000000 } 
	</style>
	<filter id="f0">
		<feFlood flood-color="#3380ff" flood-opacity="1" />
		<feBlend mode="normal" in2="SourceGraphic"/>
		<feComposite in2="SourceAlpha" operator="in" />
	</filter>
	<g id="logo" filter="url(#f0)">
		<path id="Layer" fill-rule="evenodd" class="s0" d="m410.1 292.8c0 21.3-10.6 42.7-29.8 53.3l-132.3 76.8c-19.2 10.7-44.8 10.7-64 0l-132.3-76.8c-19.2-10.6-29.8-32-29.8-53.3v-153.6c0-21.3 10.6-42.7 29.8-53.3l132.3-76.8c19.2-10.7 44.8-10.7 64 0l132.3 76.8c19.2 10.6 29.8 32 29.8 53.3zm-40.5-142.9c0-12.8-6.4-25.6-19.2-32l-115.2-66.2c-12.8-6.4-25.6-6.4-36.3 0l-117.3 66.2c-10.7 6.4-17.1 19.2-17.1 32v134.4c0 12.8 6.4 25.6 17.1 32l117.3 66.1c10.7 6.4 23.5 6.4 36.3 0l115.2-66.1c12.8-6.4 19.2-19.2 19.2-32z"/>
		<path id="Layer" class="s0" d="m329.1 267.2c0 8.5-4.3 17.1-12.8 21.3l-87.5 51.2q-12.8 6.4-25.6 0l-87.5-51.2c-8.5-4.2-12.8-12.8-12.8-21.3v-102.4c0-8.5 4.3-17.1 12.8-21.3l87.5-51.2q12.8-6.4 25.6 0l87.5 51.2c8.5 4.2 12.8 12.8 12.8 21.3z"/>
		<path id="Layer" class="s0" d="m248 316.3l38.4-21.4 32 53.4-38.4 21.3z"/>
		<path id="Layer" class="s0" d="m243.7 331.2q-2.1-2.1-2.1-2.1l12.8-6.4 6.4 12.8c0 0-6.4-12.8-17.1-4.3z"/>
		<path id="Layer" class="s0" d="m268.2 349.3q2.1 0 2.1 0l6.4 10.6-12.8 8.6v-2.2c0 0 12.8-6.4 4.3-17z"/>
		<path id="Layer" class="s0" d="m321.7 332.2q0 0 0 2.1l-10.7 6.4-8.5-12.8 2.1-2.1c0 0 6.4 12.8 17.1 6.4z"/>
		<path id="Layer" class="s0" d="m298.2 314.1q-2.1 0-2.1 0l-8.6-12.8 12.8-6.4 2.2 2.2c0 0-12.8 4.2-4.3 17z"/>
	</g>
</svg>