<svg version="1.2" xmlns="http://www.w3.org/2000/svg" viewBox="0 0 24 24" width="24" height="24">
	<path fill="#000000" d="m10.4 5.7l3.9-2.5q0.2-0.2 0.6-0.2 0.3 0 0.5 0.1 0.3 0.2 0.5 0.4 0.1 0.3 0.2 0.6l0.2 4.6 3.6 2.9q0.2 0.2 0.4 0.5 0.1 0.3 0 0.6 0 0.3-0.2 0.5-0.2 0.3-0.5 0.4l-3.4 1.3 4.3 4.3q0.3 0.3 0.3 0.7 0 0.4-0.3 0.6-0.2 0.3-0.6 0.3-0.4 0-0.7-0.3l-4.3-4.3-1.3 3.4q-0.1 0.3-0.4 0.5-0.2 0.2-0.5 0.2-0.3 0.1-0.6 0-0.3-0.2-0.5-0.4l-2.9-3.6-4.6-0.2c-0.9-0.1-1.4-1.1-0.9-1.8l2.5-3.9-1.2-4.5q-0.1-0.3 0-0.6 0.1-0.3 0.3-0.5 0.2-0.2 0.5-0.3 0.3-0.1 0.6 0c0 0 4.5 1.2 4.5 1.2zm-3 5.4l-2 3.2 3.7 0.2q0.1 0 0.3 0 0.1 0 0.2 0.1 0.1 0 0.2 0.1 0.1 0.1 0.2 0.2l2.3 2.9 1.3-3.5c0.2-0.3 0.4-0.5 0.7-0.7l3.5-1.3-2.9-2.3c-0.3-0.3-0.4-0.6-0.4-0.9l-0.2-3.7-3.2 2c-0.2 0.2-0.6 0.3-0.9 0.2l-3.6-1 1 3.6c0.1 0.3 0 0.7-0.2 0.9z"/>
</svg>