<svg version="1.2" xmlns="http://www.w3.org/2000/svg" viewBox="0 0 24 24" width="24" height="24">
	<path fill-rule="evenodd" d="m21.1 15.6c0 1-0.5 2-1.4 2.5l-6.2 3.6c-0.9 0.5-2.1 0.5-3 0l-6.2-3.6c-0.9-0.5-1.4-1.5-1.4-2.5v-7.2c0-1 0.5-2 1.4-2.5l6.2-3.6c0.9-0.5 2.1-0.5 3 0l6.2 3.6c0.9 0.5 1.4 1.5 1.4 2.5zm-1.9-6.7c0-0.6-0.3-1.2-0.9-1.5l-5.4-3.1c-0.6-0.3-1.2-0.3-1.7 0l-5.5 3.1c-0.5 0.3-0.8 0.9-0.8 1.5v6.3c0 0.6 0.3 1.2 0.8 1.5l5.5 3.1c0.5 0.3 1.1 0.3 1.7 0l5.4-3.1c0.6-0.3 0.9-0.9 0.9-1.5z"/>
	<path d="m17.3 14.4c0 0.4-0.2 0.8-0.6 1l-4.1 2.4c-0.4 0.2-0.8 0.2-1.2 0l-4.1-2.4c-0.4-0.2-0.6-0.6-0.6-1v-4.8c0-0.4 0.2-0.8 0.6-1l4.1-2.4c0.4-0.2 0.8-0.2 1.2 0l4.1 2.4c0.4 0.2 0.6 0.6 0.6 1z"/>
	<path d="m13.5 16.7l1.8-1 1.5 2.5-1.8 1z"/>
	<path d="m13.3 17.4q-0.1-0.1-0.1-0.1l0.6-0.3 0.3 0.6c0 0-0.3-0.6-0.8-0.2z"/>
	<path d="m14.4 18.2q0.1 0 0.1 0l0.3 0.5-0.6 0.4v-0.1c0 0 0.6-0.3 0.2-0.8z"/>
	<path d="m17 17.4q0 0 0 0.1l-0.5 0.3-0.4-0.6 0.1-0.1c0 0 0.3 0.6 0.8 0.3z"/>
	<path d="m15.9 16.6q-0.1 0-0.1 0l-0.4-0.6 0.6-0.3 0.1 0.1c0 0-0.6 0.2-0.2 0.8z"/>
</svg>